<?xml version="1.0" encoding="UTF-8"?>
<svg id="_レイヤー_2" data-name="レイヤー 2" xmlns="http://www.w3.org/2000/svg" viewBox="0 0 20.79 20.79">
  <defs>
    <style>
      .cls-1 {
        fill: #000;
      }
    </style>
  </defs>
  <g id="_デザイン" data-name="デザイン">
    <g>
      <path class="cls-1" d="M10.4,1.87c2.78,0,3.1,.01,4.2,.06,1.01,.05,1.56,.22,1.93,.36,.49,.19,.83,.41,1.2,.78,.36,.36,.59,.71,.78,1.2,.14,.37,.31,.92,.36,1.93,.05,1.1,.06,1.43,.06,4.2s-.01,3.1-.06,4.2c-.05,1.01-.22,1.56-.36,1.93-.19,.49-.41,.83-.78,1.2s-.71,.59-1.2,.78c-.37,.14-.92,.31-1.93,.36-1.1,.05-1.42,.06-4.2,.06s-3.11-.01-4.2-.06c-1.01-.05-1.56-.22-1.93-.36-.49-.19-.83-.41-1.2-.78-.36-.36-.59-.71-.78-1.2-.14-.37-.31-.92-.36-1.93-.05-1.1-.06-1.43-.06-4.2s.01-3.1,.06-4.2c.05-1.01,.22-1.56,.36-1.93,.19-.49,.41-.83,.78-1.2s.71-.59,1.2-.78c.37-.14,.92-.31,1.93-.36,1.1-.05,1.43-.06,4.2-.06m0-1.87c-2.82,0-3.18,.01-4.29,.06-1.11,.05-1.86,.23-2.52,.48-.68,.27-1.26,.62-1.84,1.2-.58,.58-.93,1.16-1.2,1.84-.26,.66-.43,1.42-.48,2.52-.05,1.11-.06,1.46-.06,4.29s.01,3.18,.06,4.29c.05,1.11,.23,1.86,.48,2.52,.27,.68,.62,1.26,1.2,1.84,.58,.58,1.16,.93,1.84,1.2,.66,.26,1.42,.43,2.52,.48,1.11,.05,1.46,.06,4.29,.06s3.18-.01,4.29-.06c1.11-.05,1.86-.23,2.52-.48,.68-.27,1.26-.62,1.84-1.2,.58-.58,.93-1.16,1.2-1.84,.26-.66,.43-1.42,.48-2.52,.05-1.11,.06-1.46,.06-4.29s-.01-3.18-.06-4.29c-.05-1.11-.23-1.86-.48-2.52-.27-.68-.62-1.26-1.2-1.84-.58-.58-1.16-.93-1.84-1.2-.66-.26-1.42-.43-2.52-.48-1.11-.05-1.46-.06-4.29-.06h0Z"/>
      <path class="cls-1" d="M10.4,5.06c-2.95,0-5.34,2.39-5.34,5.34s2.39,5.34,5.34,5.34,5.34-2.39,5.34-5.34-2.39-5.34-5.34-5.34Zm0,8.8c-1.91,0-3.47-1.55-3.47-3.47s1.55-3.47,3.47-3.47,3.47,1.55,3.47,3.47-1.55,3.47-3.47,3.47Z"/>
      <circle class="cls-1" cx="15.95" cy="4.85" r="1.25"/>
    </g>
  </g>
</svg>